<?xml version="1.0" encoding="UTF-8"?>
<svg id="Layer_1" data-name="Layer 1" xmlns="http://www.w3.org/2000/svg" viewBox="0 0 64 64">
  <defs>
    <style>
      .cls-1 {
        fill: #fff;
      }

      .cls-2 {
        fill: red;
      }
    </style>
  </defs>
  <path d="m13.25,34v7.67h-2.38v-20.31h5.58c2.17,0,3.85.53,5.05,1.59,1.19,1.06,1.79,2.55,1.79,4.47s-.66,3.5-1.99,4.73c-1.33,1.23-3.12,1.84-5.37,1.84h-2.68Zm0-10.48v8.33h2.49c1.64,0,2.9-.38,3.76-1.13.86-.75,1.3-1.81,1.3-3.18,0-2.68-1.59-4.02-4.76-4.02h-2.79Z"/>
  <path d="m41.51,41.67h-2.32v-8.27c0-3.08-1.12-4.62-3.37-4.62-1.16,0-2.12.44-2.88,1.31s-1.14,1.98-1.14,3.31v8.27h-2.32v-14.5h2.32v2.41h.06c1.09-1.83,2.68-2.75,4.76-2.75,1.59,0,2.8.51,3.64,1.54.84,1.02,1.26,2.5,1.26,4.44v8.86Z"/>
  <path d="m44.9,23.49c-.42,0-.77-.14-1.06-.42-.29-.28-.44-.64-.44-1.08s.15-.8.44-1.08c.29-.29.65-.43,1.06-.43s.79.14,1.08.43c.3.29.45.65.45,1.08s-.15.77-.45,1.06c-.3.29-.66.44-1.08.44Zm1.13,18.18h-2.32v-14.5h2.32v14.5Z"/>
  <path d="m55.28,41.53c-.55.3-1.27.45-2.17.45-2.54,0-3.81-1.42-3.81-4.25v-8.58h-2.49v-1.98h2.49v-3.54l2.32-.75v4.29h3.65v1.98h-3.65v8.17c0,.97.17,1.67.5,2.08s.88.62,1.64.62c.58,0,1.09-.16,1.51-.48v1.98Z"/>
  <g>
    <path d="m25.81,23.49c-.42,0-.77-.14-1.06-.42s-.44-.64-.44-1.08.15-.8.44-1.08c.29-.29.65-.43,1.06-.43s.79.14,1.08.43c.3.29.45.65.45,1.08s-.15.77-.45,1.06c-.3.29-.66.44-1.08.44Zm1.13,18.18h-2.32v-14.5h2.32v14.5Z"/>
    <circle class="cls-1" cx="25.83" cy="21.99" r="1.82"/>
    <circle class="cls-2" cx="25.83" cy="21.99" r="1.52"/>
  </g>
</svg>