<svg width="102" height="38" viewBox="0 0 102 38" fill="none" xmlns="http://www.w3.org/2000/svg">
<path d="M0.0340576 37.0001V2.091H13.8068C16.4545 2.091 18.7102 2.59668 20.5738 3.60804C22.4375 4.60804 23.8579 6.00009 24.8352 7.78418C25.8238 9.55691 26.3182 11.6024 26.3182 13.9205C26.3182 16.2387 25.8182 18.2842 24.8182 20.0569C23.8182 21.8296 22.3693 23.2103 20.4716 24.199C18.5852 25.1876 16.3011 25.6819 13.6193 25.6819H4.84088V19.7671H12.4261C13.8466 19.7671 15.017 19.5228 15.9375 19.0342C16.8693 18.5342 17.5625 17.8467 18.017 16.9717C18.4829 16.0853 18.7159 15.0683 18.7159 13.9205C18.7159 12.7615 18.4829 11.7501 18.017 10.8865C17.5625 10.0115 16.8693 9.33532 15.9375 8.85804C15.0056 8.36941 13.8238 8.12509 12.392 8.12509H7.41474V37.0001H0.0340576Z" fill="white"/>
<path d="M30.9758 37.0001V10.8183H38.2372V37.0001H30.9758Z" fill="white"/>
<path d="M51.3153 21.8637V37.0001H44.0539V10.8183H50.9744V15.4376H51.2812C51.8608 13.9149 52.8324 12.7103 54.196 11.824C55.5596 10.9262 57.213 10.4774 59.1562 10.4774C60.9744 10.4774 62.5596 10.8751 63.9119 11.6705C65.2642 12.466 66.3153 13.6024 67.0653 15.0796C67.8153 16.5455 68.1903 18.2955 68.1903 20.3296V37.0001H60.9289V21.6251C60.9403 20.0228 60.5312 18.7728 59.7017 17.8751C58.8721 16.966 57.7301 16.5115 56.2755 16.5115C55.2983 16.5115 54.4346 16.7217 53.6846 17.1421C52.946 17.5626 52.3664 18.1762 51.946 18.983C51.5369 19.7785 51.3267 20.7387 51.3153 21.8637Z" fill="white"/>
<path d="M73.9133 37.0001V10.8183H81.1747V37.0001H73.9133ZM77.561 7.44327C76.4815 7.44327 75.5554 7.08532 74.7826 6.36941C74.0213 5.64213 73.6406 4.77282 73.6406 3.76145C73.6406 2.76145 74.0213 1.9035 74.7826 1.18759C75.5554 0.460317 76.4815 0.0966797 77.561 0.0966797C78.6406 0.0966797 79.561 0.460317 80.3224 1.18759C81.0951 1.9035 81.4815 2.76145 81.4815 3.76145C81.4815 4.77282 81.0951 5.64213 80.3224 6.36941C79.561 7.08532 78.6406 7.44327 77.561 7.44327Z" fill="white"/>
<path d="M100.918 10.8183V16.2728H85.1505V10.8183H100.918ZM88.7301 4.54554H95.9914V28.9546C95.9914 29.6251 96.0937 30.1478 96.2983 30.5228C96.5028 30.8865 96.7869 31.1421 97.1505 31.2899C97.5255 31.4376 97.9574 31.5115 98.446 31.5115C98.7869 31.5115 99.1278 31.483 99.4687 31.4262C99.8096 31.358 100.071 31.3069 100.253 31.2728L101.395 36.6762C101.031 36.7899 100.52 36.9205 99.8608 37.0683C99.2017 37.2274 98.4005 37.324 97.4574 37.358C95.7074 37.4262 94.1733 37.1933 92.8551 36.6592C91.5483 36.1251 90.5312 35.2955 89.8039 34.1705C89.0767 33.0455 88.7187 31.6251 88.7301 29.9092V4.54554Z" fill="white"/>
<circle cx="34.5" cy="3.5" r="3.5" fill="#F43636"/>
</svg>
