<svg width="102" height="38" viewBox="0 0 102 38" fill="none" xmlns="http://www.w3.org/2000/svg">
<path d="M0 37.0001V2.091H13.7727C16.4205 2.091 18.6761 2.59668 20.5398 3.60804C22.4034 4.60804 23.8239 6.00009 24.8011 7.78418C25.7898 9.55691 26.2841 11.6024 26.2841 13.9205C26.2841 16.2387 25.7841 18.2842 24.7841 20.0569C23.7841 21.8296 22.3352 23.2103 20.4375 24.199C18.5511 25.1876 16.267 25.6819 13.5852 25.6819H4.80682V19.7671H12.392C13.8125 19.7671 14.983 19.5228 15.9034 19.0342C16.8352 18.5342 17.5284 17.8467 17.983 16.9717C18.4489 16.0853 18.6818 15.0683 18.6818 13.9205C18.6818 12.7615 18.4489 11.7501 17.983 10.8865C17.5284 10.0115 16.8352 9.33532 15.9034 8.85804C14.9716 8.36941 13.7898 8.12509 12.358 8.12509H7.38068V37.0001H0Z" fill="black"/>
<path d="M30.9418 37.0001V10.8183H38.2031V37.0001H30.9418Z" fill="black"/>
<path d="M51.2812 21.8637V37.0001H44.0199V10.8183H50.9403V15.4376H51.2472C51.8267 13.9149 52.7983 12.7103 54.1619 11.824C55.5256 10.9262 57.179 10.4774 59.1222 10.4774C60.9403 10.4774 62.5256 10.8751 63.8778 11.6705C65.2301 12.466 66.2812 13.6024 67.0312 15.0796C67.7812 16.5455 68.1562 18.2955 68.1562 20.3296V37.0001H60.8949V21.6251C60.9062 20.0228 60.4972 18.7728 59.6676 17.8751C58.8381 16.966 57.696 16.5115 56.2415 16.5115C55.2642 16.5115 54.4006 16.7217 53.6506 17.1421C52.9119 17.5626 52.3324 18.1762 51.9119 18.983C51.5028 19.7785 51.2926 20.7387 51.2812 21.8637Z" fill="black"/>
<path d="M73.8793 37.0001V10.8183H81.1406V37.0001H73.8793ZM77.527 7.44327C76.4474 7.44327 75.5213 7.08532 74.7486 6.36941C73.9872 5.64213 73.6065 4.77282 73.6065 3.76145C73.6065 2.76145 73.9872 1.9035 74.7486 1.18759C75.5213 0.460317 76.4474 0.0966797 77.527 0.0966797C78.6065 0.0966797 79.527 0.460317 80.2884 1.18759C81.0611 1.9035 81.4474 2.76145 81.4474 3.76145C81.4474 4.77282 81.0611 5.64213 80.2884 6.36941C79.527 7.08532 78.6065 7.44327 77.527 7.44327Z" fill="black"/>
<path d="M100.884 10.8183V16.2728H85.1165V10.8183H100.884ZM88.696 4.54554H95.9574V28.9546C95.9574 29.6251 96.0597 30.1478 96.2642 30.5228C96.4688 30.8865 96.7528 31.1421 97.1165 31.2899C97.4915 31.4376 97.9233 31.5115 98.4119 31.5115C98.7528 31.5115 99.0938 31.483 99.4347 31.4262C99.7756 31.358 100.037 31.3069 100.219 31.2728L101.361 36.6762C100.997 36.7899 100.486 36.9205 99.8267 37.0683C99.1676 37.2274 98.3665 37.324 97.4233 37.358C95.6733 37.4262 94.1392 37.1933 92.821 36.6592C91.5142 36.1251 90.4972 35.2955 89.7699 34.1705C89.0426 33.0455 88.6847 31.6251 88.696 29.9092V4.54554Z" fill="black"/>
<circle cx="34.4659" cy="3.5" r="3.5" fill="#F43636"/>
</svg>
